<svg width="20" height="20" viewBox="0 0 20 20" fill="none" xmlns="http://www.w3.org/2000/svg">
<path fill-rule="evenodd" clip-rule="evenodd" d="M14.1357 14.9974C12.8152 16.1216 11.1035 16.8001 9.23335 16.8001C5.0544 16.8001 1.66669 13.4124 1.66669 9.23341C1.66669 5.05446 5.0544 1.66675 9.23335 1.66675C13.4123 1.66675 16.8 5.05446 16.8 9.23341C16.8 11.0922 16.1298 12.7945 15.0177 14.1117L18.6497 17.7437L17.7658 18.6276L14.1357 14.9974ZM15.55 9.23341C15.55 12.722 12.722 15.5501 9.23335 15.5501C5.74475 15.5501 2.91669 12.722 2.91669 9.23341C2.91669 5.74482 5.74475 2.91675 9.23335 2.91675C12.722 2.91675 15.55 5.74482 15.55 9.23341Z" fill="black" fill-opacity="0.7"/>
</svg>
